<svg width="64" height="64" viewBox="0 0 64 64" fill="none" xmlns="http://www.w3.org/2000/svg">
<g clip-path="url(#clip0_21_17)">
<path fill-rule="evenodd" clip-rule="evenodd" d="M30.7358 29.1238H36.8997L41.438 16.9893H48.8325V46.2797H42.6975V36.3108L43.0214 27.8007L35.965 46.2797H31.6409L24.6046 27.8203L24.9279 36.3108V46.2797H18.812V16.9893H26.1869L30.7358 29.1238ZM32.376 33.4988L33.8214 37.3544L35.2634 33.4988H32.376Z" fill="#007724"/>
<path fill-rule="evenodd" clip-rule="evenodd" d="M32.6915 0.731445C38.8636 0.731447 44.2963 1.98516 48.9896 4.49255C53.6829 6.93566 57.3477 9.31823 59.9836 14.1401C62.6196 18.8978 63.9376 24.7805 63.9376 31.7883C63.9376 38.7319 62.4909 44.6146 59.5978 49.4365C56.7046 54.1941 52.7507 56.5767 47.736 59.0841C42.7855 61.5272 37.1598 62.7488 30.8591 62.7488H-0.0078125V58.7948L6.8645 57.7339C6.99309 53.6192 7.05737 50.6902 7.05737 46.4469V16.9368C7.05737 12.7578 6.99309 9.86091 6.8645 5.74622L-0.0078125 4.68542V0.731445H32.6915ZM16.4119 5.1676C16.3476 9.2823 16.2833 12.2435 16.219 16.551V46.5433C16.2833 50.9152 16.3476 53.9729 16.4119 58.2162H30.2805C37.7384 58.2162 43.4604 55.8052 47.4465 50.9833C51.4327 46.0971 53.4258 40.5321 53.4258 31.7883C53.4258 22.7231 51.4649 15.8117 47.5431 11.0541C43.6213 6.29646 38.1564 5.16761 31.1486 5.1676H16.4119Z" fill="#007724"/>
</g>
<defs>
<clipPath id="clip0_21_17">
<rect width="64" height="64" fill="white"/>
</clipPath>
</defs>
</svg>
