<svg width="32" height="32" viewBox="0 0 32 32" fill="none" xmlns="http://www.w3.org/2000/svg">
<g clip-path="url(#clip0_21_16)">
<path fill-rule="evenodd" clip-rule="evenodd" d="M15.561 15.0015H17.7009L19.2765 10.7888H21.8437V20.9576H19.7138V17.4967L19.8262 14.5422L17.3764 20.9576H15.8752L13.4324 14.549L13.5446 17.4967V20.9576H11.4214V10.7888H13.9817L15.561 15.0015ZM16.1304 16.5204L16.6322 17.859L17.1329 16.5204H16.1304Z" fill="#007724"/>
<path fill-rule="evenodd" clip-rule="evenodd" d="M16.24 5.14453C18.3827 5.14453 20.2688 5.57978 21.8982 6.45028C23.5276 7.29846 24.7999 8.12561 25.715 9.79964C26.6301 11.4513 27.0877 13.4937 27.0877 15.9266C27.0877 18.3372 26.5855 20.3795 25.581 22.0535C24.5766 23.7052 23.2039 24.5324 21.463 25.4029C19.7443 26.2511 17.7912 26.6752 15.6038 26.6752H4.8877V25.3025L7.27356 24.9341C7.31821 23.5056 7.34052 22.4888 7.34052 21.0156V10.7706C7.34052 9.31973 7.31821 8.31402 7.27356 6.88552L4.8877 6.51724V5.14453H16.24ZM10.5881 6.68464C10.5658 8.11314 10.5435 9.14117 10.5212 10.6366V21.0491C10.5435 22.5669 10.5658 23.6284 10.5881 25.1016H15.4029C17.9921 25.1016 19.9786 24.2645 21.3625 22.5905C22.7463 20.8942 23.4383 18.9622 23.4383 15.9266C23.4383 12.7794 22.7575 10.38 21.396 8.72825C20.0345 7.07655 18.1372 6.68464 15.7043 6.68464H10.5881Z" fill="#007724"/>
</g>
<defs>
<clipPath id="clip0_21_16">
<rect width="22.219" height="22.219" fill="white" transform="translate(4.89062 4.89062)"/>
</clipPath>
</defs>
</svg>
